HIERARCHY
ROOT RootJoint
{
    OFFSET   0.000000   0.000000   0.000000
    CHANNELS 6 Xposition Yposition Zposition Xrotation Yrotation Zrotation
    JOINT pelvis_lowerback
    {
        OFFSET   0.000000   0.093605   0.000000
        CHANNELS 3 Xrotation Yrotation Zrotation
        JOINT lowerback_torso
        {
            OFFSET   0.000000   0.100000   0.000000
            CHANNELS 3 Xrotation Yrotation Zrotation
            JOINT torso_head
            {
                OFFSET   0.000000   0.282350   0.000000
                CHANNELS 3 Xrotation Yrotation Zrotation
                End Site
                {
                    OFFSET   0.000000   0.192650   0.000000
                }
            }
            JOINT rTorso_Clavicle
            {
                OFFSET  -0.001000   0.157500   0.000000
                CHANNELS 3 Xrotation Yrotation Zrotation
                JOINT rShoulder
                {
                    OFFSET  -0.117647   0.000000   0.000000
                    CHANNELS 3 Xrotation Yrotation Zrotation
                    JOINT rElbow
                    {
                        OFFSET  -0.245000   0.000000   0.000000
                        CHANNELS 3 Xrotation Yrotation Zrotation
                        JOINT rWrist
                        {
                            OFFSET  -0.240000   0.000000   0.000000
                            CHANNELS 3 Xrotation Yrotation Zrotation
                            End Site
                            {
                                OFFSET  -0.116353  -0.002500   0.000000
                            }
                        }
                    }
                }
            }
            JOINT lTorso_Clavicle
            {
                OFFSET   0.001000   0.157500   0.000000
                CHANNELS 3 Xrotation Yrotation Zrotation
                JOINT lShoulder
                {
                    OFFSET   0.117647   0.000000   0.000000
                    CHANNELS 3 Xrotation Yrotation Zrotation
                    JOINT lElbow
                    {
                        OFFSET   0.245000   0.000000   0.000000
                        CHANNELS 3 Xrotation Yrotation Zrotation
                        JOINT lWrist
                        {
                            OFFSET   0.240000   0.000000   0.000000
                            CHANNELS 3 Xrotation Yrotation Zrotation
                            End Site
                            {
                                OFFSET   0.116353  -0.002500   0.000000
                            }
                        }
                    }
                }
            }
        }
    }
    JOINT rHip
    {
        OFFSET  -0.100000  -0.051395   0.000000
        CHANNELS 3 Xrotation Yrotation Zrotation
        JOINT rKnee
        {
            OFFSET   0.000000  -0.410000   0.000000
            CHANNELS 3 Xrotation Yrotation Zrotation
            JOINT rAnkle
            {
                OFFSET   0.000000  -0.390000   0.000000
                CHANNELS 3 Xrotation Yrotation Zrotation
                JOINT rToeJoint
                {
                    OFFSET   0.000000  -0.050000   0.130000
                    CHANNELS 3 Xrotation Yrotation Zrotation
                    End Site
                    {
                        OFFSET  -0.010000   0.002000   0.060000
                    }
                }
            }
        }
    }
    JOINT lHip
    {
        OFFSET   0.100000  -0.051395   0.000000
        CHANNELS 3 Xrotation Yrotation Zrotation
        JOINT lKnee
        {
            OFFSET   0.000000  -0.410000   0.000000
            CHANNELS 3 Xrotation Yrotation Zrotation
            JOINT lAnkle
            {
                OFFSET   0.000000  -0.390000   0.000000
                CHANNELS 3 Xrotation Yrotation Zrotation
                JOINT lToeJoint
                {
                    OFFSET   0.000000  -0.050000   0.130000
                    CHANNELS 3 Xrotation Yrotation Zrotation
                    End Site
                    {
                        OFFSET   0.010000   0.002000   0.060000
                    }
                }
            }
        }
    }
}
MOTION
Frames: 10
Frame Time:   0.008333
 -2.376719   0.925631   3.975860   0.000000   0.000000   0.000000   0.000000   0.000000   0.000000   0.000000   0.000000   0.000000   0.000000   0.000000   0.000000   0.000000   0.000000   0.000000   0.000000   0.000000   0.000000   0.000000   0.000000   0.000000   0.000000   0.000000   0.000000   0.000000   0.000000   0.000000   0.000000   0.000000   0.000000   0.000000   0.000000   0.000000   0.000000   0.000000   0.000000   0.000000   0.000000   0.000000   0.000000   0.000000   0.000000   0.000000   0.000000   0.000000   0.000000   0.000000   0.000000   0.000000   0.000000   0.000000   0.000000   0.000000   0.000000   0.000000   0.000000   0.000000   0.000000   0.000000   0.000000
 -2.377844   0.925868   3.975986  -0.551245   0.915246  -0.778232   0.722281  -0.218062   0.492319   0.020698  -0.302406   0.499582   0.126344   0.058132   0.064067   0.007137  -0.792869  -0.494747  -1.787304  -0.531038   2.138846   0.026462   1.662713   0.022950  -0.060235   0.093485  -2.947430   0.150295  -0.184641  -0.429670   0.596470   0.079410  -2.161791   0.015725  -0.751811   0.006199   0.005940   0.044281   3.208103   0.389712  -0.514319   1.030971   1.364378  -0.002873   0.004750  -2.024260  -0.774177  -0.785909   0.531932   0.002440  -0.001814  -0.489316  -0.426064   1.127574   3.264073  -0.009637   0.014495  -3.281581   0.048007  -0.414860   0.034069   0.000014   0.000158
 -2.379432   0.926257   3.976802  -1.197447   1.989624  -1.601018   1.383728  -0.467287   0.958835   0.126685  -0.706618   1.022853   0.309785   0.129191   0.183419   0.001871  -1.737648  -0.412667  -3.447279  -1.202938   4.565897   0.055533   3.223719   0.040119  -0.134907   0.542981  -5.306601   0.292409  -0.347999  -1.515605   1.187948   0.133719  -4.863254   0.035799  -1.472492   0.010238   0.057996  -0.117453   5.787094   0.936117  -0.978019   2.180002   2.881099  -0.005853   0.011828  -3.930172  -1.475656  -1.545740   0.905530   0.003352  -0.001905  -0.862669  -0.811307   2.467674   6.878238  -0.021332   0.036156  -6.340121   0.124762  -0.799349  -0.013479   0.000076  -0.000196
 -2.381233   0.926438   3.978155  -1.828544   3.069402  -2.341590   1.942716  -0.738395   1.333648   0.210819  -1.141117   1.468493   0.494888   0.199087   0.308631   0.006212  -2.721944   0.059738  -4.960854  -1.976761   7.107360   0.079901   4.656236   0.052684  -0.202302   0.919121  -6.980888   0.419262  -0.471044  -2.985551   1.773076   0.185353  -7.905394   0.054999  -2.137766   0.012134   0.115541  -0.290837   7.587331   1.516222  -1.388338   3.282940   4.364543  -0.007942   0.018052  -5.714782  -2.104467  -2.275250   1.246349   0.003814  -0.001613  -1.150430  -1.166185   3.843141  10.547961  -0.031497   0.057564  -9.188580   0.220064  -1.152287  -0.039572   0.000128  -0.000352
 -2.383116   0.926167   3.979904  -2.431635   4.087801  -2.987416   2.413005  -1.015067   1.616047   0.257607  -1.575901   1.822392   0.667843   0.265347   0.427398   0.026201  -3.708076   0.766838  -6.329106  -2.824283   9.656009   0.097257   5.970053   0.061654  -0.278508   1.155823  -8.153144   0.535998  -0.553308  -4.672234   2.356398   0.233250 -11.179804   0.071142  -2.748001   0.012617   0.164586  -0.419501   8.790239   2.092880  -1.754335   4.311721   5.775077  -0.009175   0.022389  -7.387696  -2.669228  -2.973349   1.556113   0.003987  -0.001288  -1.369255  -1.497862   5.213391  14.235588  -0.039536   0.076125 -11.845535   0.327133  -1.474713  -0.061880   0.000180  -0.000449
 -2.384995   0.925270   3.981929  -3.008645   5.016668  -3.547667   2.808746  -1.287526   1.815039   0.272045  -1.997164   2.089657   0.826550   0.327543   0.537897   0.064652  -4.677294   1.600097  -7.558291  -3.721211  12.141430   0.107511   7.176595   0.067745  -0.368821   1.265451  -8.993871   0.648210  -0.599582  -6.467054   2.940979   0.271540 -14.614564   0.083530  -3.307144   0.012309   0.199773  -0.492407   9.569259   2.649980  -2.082617   5.264828   7.104131  -0.009768   0.024800  -8.956201  -3.176992  -3.639419   1.836936   0.003969  -0.001045  -1.522061  -1.809233   6.565669  17.907646  -0.045456   0.090975 -14.324059   0.441539  -1.768367  -0.082022   0.000228  -0.000505
 -2.386808   0.923639   3.984133  -3.550696   5.848330  -4.033376   3.132803  -1.552272   1.938463   0.256943  -2.399699   2.277539   0.970944   0.385681   0.640498   0.122270  -5.619480   2.487742  -8.657673  -4.646704  14.521199   0.111599   8.286723   0.071539  -0.472645   1.274548  -9.627902   0.760542  -0.616034  -8.301191   3.527047   0.293504 -18.154627   0.092218  -3.819910   0.011636   0.220583  -0.514133  10.051744   3.168880  -2.379298   6.144299   8.348406  -0.009925   0.025601 -10.426628  -3.633832  -4.273380   2.091832   0.003826  -0.000897  -1.584409  -2.097552   7.892834  21.390125  -0.048975   0.100902 -16.634422   0.560257  -2.035300  -0.097310   0.000254  -0.000509
 -2.388878   0.920621   3.985812  -3.956491   6.425449  -4.744389   3.451654  -1.651323   2.292194   0.199333  -2.791217   2.398298   0.965164   0.405355   0.841306   0.094177  -6.407462   3.011664  -9.934945  -5.716630  16.421741   0.111911   9.805203   0.084664  -0.685748   0.780183  -9.595581   0.843825  -0.506078  -9.454608   3.704332   0.463753 -21.730271   0.082116  -4.009077   0.009226   0.242314  -0.871029   9.647003   3.440749  -2.820492   7.322472  10.052555  -0.012951   0.022919 -12.197787  -4.183127  -5.002353   2.422692   0.003894  -0.002222  -1.904508  -2.329612   9.479678  24.672399  -0.051917   0.104941 -17.134303   0.644251  -2.164183  -0.310302   0.001547  -0.001690
 -2.390978   0.916416   3.987287  -4.344468   6.866679  -5.436154   3.779303  -1.681860   2.600245   0.166824  -3.093150   2.487312   0.954219   0.418246   1.039122   0.063363  -7.119009   3.282011 -11.117474  -6.713039  18.016343   0.102773  11.246113   0.092476  -0.889356   0.394038  -9.759662   0.937627  -0.344250 -10.363206   3.893386   0.668056 -24.965439   0.071587  -4.158361   0.007297   0.221546  -1.087137   9.277333   3.775111  -3.241916   8.518080  11.715163  -0.016154   0.019235 -13.858699  -4.678316  -5.697239   2.710130   0.003672  -0.003243  -2.290174  -2.576739  11.021580  27.704645  -0.052794   0.104253 -17.578966   0.724503  -2.281672  -0.366318   0.001586  -0.001639
 -2.393047   0.911148   3.988579  -4.713910   7.221838  -6.072127   4.104868  -1.659500   2.845587   0.156685  -3.320929   2.529549   0.945679   0.429295   1.222701   0.030792  -7.761790   3.379407 -12.214454  -7.640285  19.374154   0.089058  12.604065   0.095928  -1.074175   0.102375 -10.149641   1.038460  -0.158320 -11.099319   4.090548   0.879451 -27.907009   0.061816  -4.285071   0.005746   0.184209  -1.216905   9.077177   4.175580  -3.624911   9.681111  13.294774  -0.018982   0.015735 -15.414201  -5.122023  -6.358534   2.976839   0.003339  -0.003948  -2.738358  -2.834927  12.466035  30.501088  -0.051768   0.101085 -17.994515   0.800187  -2.390105  -0.414676   0.001553  -0.001539
